<svg xmlns="http://www.w3.org/2000/svg" viewBox="0 0 512 512" width="512" height="512" role="img" aria-label="Tha Carter Studios monogram"><title>Tha Carter Studios monogram</title><rect width="512" height="512" rx="76" fill="#14110D"/><rect x="34" y="34" width="444" height="444" rx="50" fill="none" stroke="#A97C22" stroke-width="9"/><rect x="56" y="56" width="400" height="400" rx="36" fill="none" stroke="#A97C22" stroke-width="2.5" stroke-opacity="0.6"/><path d="M263.87 334.79Q259.84 336.57 258.07 334.15Q256.30 331.73 259.52 329.15Q278.21 315.30 278.70 305.47Q279.18 298.86 272.65 289.84Q266.13 280.81 249.69 265.83Q216.34 235.54 216.66 215.56Q216.66 197.19 244.38 179.95Q245.34 179.46 252.27 175.35Q259.20 171.24 262.26 168.99Q263.71 167.70 263.39 166.09Q258.39 144.01 235.67 144.01Q212.63 144.01 201.19 172.61Q189.75 201.21 193.13 235.05Q198.94 294.03 231.16 323.60Q263.39 353.16 304.80 353.16Q327.68 353.16 352.82 340.92Q356.52 339.14 358.30 341.80Q360.07 344.46 356.68 347.36Q318.17 377.82 268.71 377.82Q219.24 377.82 187.01 338.90Q154.79 299.99 152.37 262.77Q148.98 208.95 172.83 171.57Q196.68 134.18 233.10 134.18Q247.92 134.18 256.86 141.68Q265.81 149.17 269.19 159.64Q270.32 162.87 273.22 161.09Q287.40 150.62 299.48 138.05Q304.80 134.02 311.65 137.65Q318.50 141.27 324.30 144.17Q329.61 147.24 337.35 151.42Q345.08 155.61 353.78 151.91Q357.33 150.14 359.18 151.99Q361.04 153.84 358.94 156.26Q350.72 164.32 343.63 170.68Q336.54 177.04 329.78 183.17Q328.16 184.78 327.68 184.94Q327.04 185.26 326.07 185.26Q324.78 185.26 323.09 184.13Q321.40 183.01 320.27 182.36Q292.39 168.83 281.76 168.83Q274.02 169.15 266.13 175.43Q252.92 185.75 252.75 195.74Q252.27 208.30 272.57 225.87Q314.79 262.45 317.05 284.20Q318.66 304.82 263.87 334.79Z" fill="#E3B14A"/></svg>